<mxfile host="app.diagrams.net" modified="2020-12-07T11:58:26.060Z" agent="5.0 (Windows NT 10.0; Win64; x64) AppleWebKit/537.36 (KHTML, like Gecko) Chrome/86.0.4240.198 Safari/537.36" etag="g4ENqDWX0nKbHoFplPtf" version="13.10.9" type="github">
  <diagram id="tIzCXE4-PxEZl2wt9lBP" name="Page-1">
    <mxGraphModel dx="1422" dy="706" grid="1" gridSize="10" guides="1" tooltips="1" connect="1" arrows="1" fold="1" page="1" pageScale="1" pageWidth="1169" pageHeight="827" math="0" shadow="0">
      <root>
        <mxCell id="0" />
        <mxCell id="1" parent="0" />
        <mxCell id="ZcQAhdeDkrUvlJ8ZgBCD-28" style="edgeStyle=none;rounded=0;orthogonalLoop=1;jettySize=auto;html=1;entryX=0.5;entryY=0;entryDx=0;entryDy=0;" edge="1" parent="1" source="ZcQAhdeDkrUvlJ8ZgBCD-24" target="ZcQAhdeDkrUvlJ8ZgBCD-27">
          <mxGeometry relative="1" as="geometry" />
        </mxCell>
        <mxCell id="ZcQAhdeDkrUvlJ8ZgBCD-24" value="" style="rounded=0;whiteSpace=wrap;html=1;fillColor=#d5e8d4;strokeColor=#82b366;" vertex="1" parent="1">
          <mxGeometry x="320" y="140" width="540" height="350" as="geometry" />
        </mxCell>
        <mxCell id="ZcQAhdeDkrUvlJ8ZgBCD-16" style="rounded=0;orthogonalLoop=1;jettySize=auto;html=1;exitX=1;exitY=0;exitDx=0;exitDy=0;entryX=0;entryY=0.5;entryDx=0;entryDy=0;" edge="1" parent="1" source="ZcQAhdeDkrUvlJ8ZgBCD-7" target="ZcQAhdeDkrUvlJ8ZgBCD-11">
          <mxGeometry relative="1" as="geometry" />
        </mxCell>
        <mxCell id="ZcQAhdeDkrUvlJ8ZgBCD-17" style="edgeStyle=none;rounded=0;orthogonalLoop=1;jettySize=auto;html=1;exitX=1;exitY=0.25;exitDx=0;exitDy=0;entryX=0;entryY=0.5;entryDx=0;entryDy=0;" edge="1" parent="1" source="ZcQAhdeDkrUvlJ8ZgBCD-7" target="ZcQAhdeDkrUvlJ8ZgBCD-12">
          <mxGeometry relative="1" as="geometry" />
        </mxCell>
        <mxCell id="ZcQAhdeDkrUvlJ8ZgBCD-18" style="edgeStyle=none;rounded=0;orthogonalLoop=1;jettySize=auto;html=1;exitX=1;exitY=0.75;exitDx=0;exitDy=0;" edge="1" parent="1" source="ZcQAhdeDkrUvlJ8ZgBCD-7">
          <mxGeometry relative="1" as="geometry">
            <mxPoint x="380" y="370" as="targetPoint" />
          </mxGeometry>
        </mxCell>
        <mxCell id="ZcQAhdeDkrUvlJ8ZgBCD-19" style="edgeStyle=none;rounded=0;orthogonalLoop=1;jettySize=auto;html=1;exitX=1;exitY=1;exitDx=0;exitDy=0;entryX=0;entryY=0.5;entryDx=0;entryDy=0;" edge="1" parent="1" source="ZcQAhdeDkrUvlJ8ZgBCD-7" target="ZcQAhdeDkrUvlJ8ZgBCD-13">
          <mxGeometry relative="1" as="geometry" />
        </mxCell>
        <mxCell id="ZcQAhdeDkrUvlJ8ZgBCD-7" value="&lt;font style=&quot;font-size: 17px&quot;&gt;[{cid:组件1,config:配置1}, &lt;br&gt;{cid:组件2,config:配置2}&lt;br&gt;,....&lt;br&gt;{cid:组件n,config:配置n}]&lt;/font&gt;" style="text;html=1;strokeColor=none;fillColor=none;align=center;verticalAlign=middle;whiteSpace=wrap;rounded=0;" vertex="1" parent="1">
          <mxGeometry x="30" y="270" width="240" height="100" as="geometry" />
        </mxCell>
        <mxCell id="ZcQAhdeDkrUvlJ8ZgBCD-11" value="&lt;span style=&quot;font-size: 17px&quot;&gt;import 组件1 from &#39;组件1&#39;;&lt;br&gt;h(组件1, {props:配置1})&lt;/span&gt;" style="text;html=1;strokeColor=none;fillColor=none;align=center;verticalAlign=middle;whiteSpace=wrap;rounded=0;" vertex="1" parent="1">
          <mxGeometry x="310" y="150" width="240" height="100" as="geometry" />
        </mxCell>
        <mxCell id="ZcQAhdeDkrUvlJ8ZgBCD-12" value="&lt;span style=&quot;font-size: 17px&quot;&gt;import 组件2 from &#39;组件2&#39;;&lt;br&gt;h(组件2, {props:配置2})&lt;/span&gt;" style="text;html=1;strokeColor=none;fillColor=none;align=center;verticalAlign=middle;whiteSpace=wrap;rounded=0;" vertex="1" parent="1">
          <mxGeometry x="310" y="230" width="240" height="100" as="geometry" />
        </mxCell>
        <mxCell id="ZcQAhdeDkrUvlJ8ZgBCD-13" value="&lt;span style=&quot;font-size: 17px&quot;&gt;import 组件N from &#39;组件N&#39;;&lt;br&gt;h(组件N, {props:配置N})&lt;/span&gt;" style="text;html=1;strokeColor=none;fillColor=none;align=center;verticalAlign=middle;whiteSpace=wrap;rounded=0;" vertex="1" parent="1">
          <mxGeometry x="310" y="394" width="240" height="96" as="geometry" />
        </mxCell>
        <mxCell id="ZcQAhdeDkrUvlJ8ZgBCD-14" value="&lt;b&gt;&lt;font style=&quot;font-size: 43px&quot;&gt;...&lt;/font&gt;&lt;/b&gt;" style="text;html=1;strokeColor=none;fillColor=none;align=center;verticalAlign=middle;whiteSpace=wrap;rounded=0;" vertex="1" parent="1">
          <mxGeometry x="390" y="350" width="60" height="20" as="geometry" />
        </mxCell>
        <mxCell id="ZcQAhdeDkrUvlJ8ZgBCD-20" value="" style="shape=curlyBracket;whiteSpace=wrap;html=1;rounded=1;rotation=-180;" vertex="1" parent="1">
          <mxGeometry x="545" y="180" width="40" height="280" as="geometry" />
        </mxCell>
        <mxCell id="ZcQAhdeDkrUvlJ8ZgBCD-23" style="edgeStyle=none;rounded=0;orthogonalLoop=1;jettySize=auto;html=1;" edge="1" parent="1" source="ZcQAhdeDkrUvlJ8ZgBCD-21" target="ZcQAhdeDkrUvlJ8ZgBCD-22">
          <mxGeometry relative="1" as="geometry" />
        </mxCell>
        <mxCell id="ZcQAhdeDkrUvlJ8ZgBCD-21" value="&lt;div style=&quot;text-align: justify&quot;&gt;&lt;span style=&quot;font-size: 17px&quot;&gt;import 组件1 from &#39;组件1&#39;;&lt;/span&gt;&lt;/div&gt;&lt;span style=&quot;font-size: 17px&quot;&gt;&lt;div style=&quot;text-align: justify&quot;&gt;&lt;span&gt;import 组件2 from &#39;组件2&#39;;&lt;/span&gt;&lt;/div&gt;&lt;/span&gt;&lt;div style=&quot;text-align: justify&quot;&gt;&lt;span&gt;...&lt;/span&gt;&lt;/div&gt;&lt;span style=&quot;font-size: 17px&quot;&gt;&lt;div style=&quot;text-align: justify&quot;&gt;&lt;span&gt;import 组件N from &#39;组件N&#39;;&lt;/span&gt;&lt;/div&gt;&lt;/span&gt;&lt;div style=&quot;text-align: justify&quot;&gt;&lt;span style=&quot;font-size: 17px&quot;&gt;&lt;br&gt;&lt;/span&gt;&lt;/div&gt;&lt;div style=&quot;text-align: justify&quot;&gt;&lt;br&gt;&lt;/div&gt;&lt;font style=&quot;font-size: 17px&quot;&gt;&lt;div style=&quot;text-align: justify&quot;&gt;&lt;span&gt;new Vue({&lt;/span&gt;&lt;/div&gt;&lt;div style=&quot;text-align: justify&quot;&gt;&lt;span&gt;render(h){&lt;/span&gt;&lt;/div&gt;&lt;div style=&quot;text-align: justify&quot;&gt;&lt;span&gt;&amp;nbsp; &amp;nbsp; return h(&#39;div&#39;.[&lt;/span&gt;&lt;/div&gt;&lt;div style=&quot;text-align: justify&quot;&gt;&lt;span&gt;&amp;nbsp; &amp;nbsp; &amp;nbsp; &amp;nbsp; h(组件1,{props:配置1},&lt;/span&gt;&lt;/div&gt;&lt;div style=&quot;text-align: justify&quot;&gt;&amp;nbsp; &amp;nbsp; &amp;nbsp; &amp;nbsp; h(组件2,{props:配置2},&lt;span&gt;&lt;br&gt;&lt;/span&gt;&lt;/div&gt;&lt;div style=&quot;text-align: justify&quot;&gt;&amp;nbsp; &amp;nbsp; &amp;nbsp; &amp;nbsp; ...&lt;/div&gt;&lt;div style=&quot;text-align: justify&quot;&gt;&amp;nbsp; &amp;nbsp; &amp;nbsp; &amp;nbsp; h(组件N,{props:配置N}&lt;br&gt;&lt;/div&gt;&lt;div style=&quot;text-align: justify&quot;&gt;&lt;span&gt;&amp;nbsp; &amp;nbsp; ]));&lt;/span&gt;&lt;/div&gt;&lt;div style=&quot;text-align: justify&quot;&gt;&lt;span&gt;}});&lt;/span&gt;&lt;/div&gt;&lt;/font&gt;" style="text;html=1;strokeColor=none;fillColor=none;align=center;verticalAlign=middle;whiteSpace=wrap;rounded=0;" vertex="1" parent="1">
          <mxGeometry x="560" y="180" width="310" height="290" as="geometry" />
        </mxCell>
        <mxCell id="ZcQAhdeDkrUvlJ8ZgBCD-22" value="&lt;span style=&quot;font-size: 17px&quot;&gt;&lt;b&gt;生成构建入口文件 entry.js&lt;/b&gt;&lt;/span&gt;" style="text;html=1;strokeColor=none;fillColor=none;align=center;verticalAlign=middle;whiteSpace=wrap;rounded=0;" vertex="1" parent="1">
          <mxGeometry x="910" y="275" width="240" height="100" as="geometry" />
        </mxCell>
        <mxCell id="ZcQAhdeDkrUvlJ8ZgBCD-25" value="&lt;b&gt;&lt;font style=&quot;font-size: 16px&quot;&gt;获取组件&lt;/font&gt;&lt;/b&gt;" style="text;html=1;strokeColor=none;fillColor=none;align=center;verticalAlign=middle;whiteSpace=wrap;rounded=0;" vertex="1" parent="1">
          <mxGeometry x="100" y="394" width="80" height="20" as="geometry" />
        </mxCell>
        <mxCell id="ZcQAhdeDkrUvlJ8ZgBCD-26" value="&lt;span style=&quot;font-size: 16px&quot;&gt;&lt;b&gt;分析组件，生成渲染函数&lt;/b&gt;&lt;/span&gt;" style="text;html=1;strokeColor=none;fillColor=none;align=center;verticalAlign=middle;whiteSpace=wrap;rounded=0;" vertex="1" parent="1">
          <mxGeometry x="420" y="100" width="330" height="20" as="geometry" />
        </mxCell>
        <mxCell id="ZcQAhdeDkrUvlJ8ZgBCD-27" value="&lt;b&gt;&lt;font style=&quot;font-size: 19px&quot;&gt;遍历组件目录，下载组件依赖&lt;/font&gt;&lt;/b&gt;" style="rounded=0;whiteSpace=wrap;html=1;fillColor=#dae8fc;strokeColor=#6c8ebf;" vertex="1" parent="1">
          <mxGeometry x="320" y="520" width="540" height="60" as="geometry" />
        </mxCell>
      </root>
    </mxGraphModel>
  </diagram>
</mxfile>
